<?xml version="1.0" encoding="UTF-8" standalone="no"?>
<!DOCTYPE svg PUBLIC "-//W3C//DTD SVG 1.1//EN"
 "http://www.w3.org/Graphics/SVG/1.1/DTD/svg11.dtd">
<!-- Generated by graphviz version 2.47.0 (20210316.0004)
 -->
<!-- Title: dependencies Pages: 1 -->
<svg width="720pt" height="211pt"
 viewBox="0.00 0.00 720.00 211.00" xmlns="http://www.w3.org/2000/svg" xmlns:xlink="http://www.w3.org/1999/xlink">
<g id="graph0" class="graph" transform="scale(1 1) rotate(0) translate(4 207)">
<title>dependencies</title>
<polygon fill="white" stroke="transparent" points="-4,4 -4,-207 716,-207 716,4 -4,4"/>
<text text-anchor="start" x="335.01" y="-42.4" font-family="Times-12" font-weight="bold" font-size="14.00">Legend</text>
<polygon fill="#ffffb3" stroke="transparent" points="122,-10 122,-30 142,-30 142,-10 122,-10"/>
<text text-anchor="start" x="145.63" y="-15.4" font-family="Times-12" font-size="14.00"> &#160;Declarations</text>
<polygon fill="#8dd3c7" stroke="transparent" points="235,-10 235,-30 255,-30 255,-10 235,-10"/>
<text text-anchor="start" x="258.73" y="-15.4" font-family="Times-12" font-size="14.00"> &#160;Module</text>
<polygon fill="#80b1d3" stroke="transparent" points="321,-10 321,-30 341,-30 341,-10 321,-10"/>
<text text-anchor="start" x="344.78" y="-15.4" font-family="Times-12" font-size="14.00"> &#160;Bootstrap</text>
<polygon fill="#fdb462" stroke="transparent" points="418,-10 418,-30 438,-30 438,-10 418,-10"/>
<text text-anchor="start" x="441.67" y="-15.4" font-family="Times-12" font-size="14.00"> &#160;Providers</text>
<polygon fill="#fb8072" stroke="transparent" points="514,-10 514,-30 534,-30 534,-10 514,-10"/>
<text text-anchor="start" x="537.73" y="-15.4" font-family="Times-12" font-size="14.00"> &#160;Exports</text>
<g id="clust1" class="cluster">
<title>cluster_AppModule</title>
<polygon fill="none" stroke="black" stroke-dasharray="1,5" points="8,-70 8,-195 704,-195 704,-70 8,-70"/>
</g>
<g id="clust6" class="cluster">
<title>cluster_AppModule_providers</title>
<polygon fill="none" stroke="black" points="566,-78 566,-130 696,-130 696,-78 566,-78"/>
</g>
<g id="clust3" class="cluster">
<title>cluster_AppModule_imports</title>
<polygon fill="none" stroke="black" points="16,-78 16,-130 558,-130 558,-78 16,-78"/>
</g>
<!-- AdminModule -->
<g id="node1" class="node">
<title>AdminModule</title>
<polygon fill="#8dd3c7" stroke="black" points="550.44,-122 547.44,-126 526.44,-126 523.44,-122 451.56,-122 451.56,-86 550.44,-86 550.44,-122"/>
<text text-anchor="middle" x="501" y="-99.8" font-family="Times,serif" font-size="14.00">AdminModule</text>
</g>
<!-- AppModule -->
<g id="node6" class="node">
<title>AppModule</title>
<polygon fill="#8dd3c7" stroke="black" points="381.66,-187 378.66,-191 357.66,-191 354.66,-187 298.34,-187 298.34,-151 381.66,-151 381.66,-187"/>
<text text-anchor="middle" x="340" y="-164.8" font-family="Times,serif" font-size="14.00">AppModule</text>
</g>
<!-- AdminModule&#45;&gt;AppModule -->
<g id="edge1" class="edge">
<title>AdminModule&#45;&gt;AppModule</title>
<path fill="none" stroke="black" d="M501,-122.02C501,-139.37 501,-163 501,-163 501,-163 391.88,-163 391.88,-163"/>
<polygon fill="black" stroke="black" points="391.88,-159.5 381.88,-163 391.88,-166.5 391.88,-159.5"/>
</g>
<!-- AuthModule -->
<g id="node2" class="node">
<title>AuthModule</title>
<polygon fill="#8dd3c7" stroke="black" points="433.55,-122 430.55,-126 409.55,-126 406.55,-122 346.45,-122 346.45,-86 433.55,-86 433.55,-122"/>
<text text-anchor="middle" x="390" y="-99.8" font-family="Times,serif" font-size="14.00">AuthModule</text>
</g>
<!-- AuthModule&#45;&gt;AppModule -->
<g id="edge2" class="edge">
<title>AuthModule&#45;&gt;AppModule</title>
<path fill="none" stroke="black" d="M364.03,-122.11C364.03,-122.11 364.03,-140.99 364.03,-140.99"/>
<polygon fill="black" stroke="black" points="360.53,-140.99 364.03,-150.99 367.53,-140.99 360.53,-140.99"/>
</g>
<!-- PgModule -->
<g id="node3" class="node">
<title>PgModule</title>
<polygon fill="#8dd3c7" stroke="black" points="328.33,-122 325.33,-126 304.33,-126 301.33,-122 253.67,-122 253.67,-86 328.33,-86 328.33,-122"/>
<text text-anchor="middle" x="291" y="-99.8" font-family="Times,serif" font-size="14.00">PgModule</text>
</g>
<!-- PgModule&#45;&gt;AppModule -->
<g id="edge3" class="edge">
<title>PgModule&#45;&gt;AppModule</title>
<path fill="none" stroke="black" d="M313.17,-122.11C313.17,-122.11 313.17,-140.99 313.17,-140.99"/>
<polygon fill="black" stroke="black" points="309.67,-140.99 313.17,-150.99 316.67,-140.99 309.67,-140.99"/>
</g>
<!-- SessionModule -->
<g id="node4" class="node">
<title>SessionModule</title>
<polygon fill="#8dd3c7" stroke="black" points="236.33,-122 233.33,-126 212.33,-126 209.33,-122 133.67,-122 133.67,-86 236.33,-86 236.33,-122"/>
<text text-anchor="middle" x="185" y="-99.8" font-family="Times,serif" font-size="14.00">SessionModule</text>
</g>
<!-- SessionModule&#45;&gt;AppModule -->
<g id="edge4" class="edge">
<title>SessionModule&#45;&gt;AppModule</title>
<path fill="none" stroke="black" d="M185,-122.02C185,-139.37 185,-163 185,-163 185,-163 288.05,-163 288.05,-163"/>
<polygon fill="black" stroke="black" points="288.05,-166.5 298.05,-163 288.05,-159.5 288.05,-166.5"/>
</g>
<!-- UsersModule -->
<g id="node5" class="node">
<title>UsersModule</title>
<polygon fill="#8dd3c7" stroke="black" points="115.92,-122 112.92,-126 91.92,-126 88.92,-122 24.08,-122 24.08,-86 115.92,-86 115.92,-122"/>
<text text-anchor="middle" x="70" y="-99.8" font-family="Times,serif" font-size="14.00">UsersModule</text>
</g>
<!-- UsersModule&#45;&gt;AppModule -->
<g id="edge5" class="edge">
<title>UsersModule&#45;&gt;AppModule</title>
<path fill="none" stroke="black" d="M70,-122.28C70,-143.32 70,-175 70,-175 70,-175 288.11,-175 288.11,-175"/>
<polygon fill="black" stroke="black" points="288.11,-178.5 298.11,-175 288.11,-171.5 288.11,-178.5"/>
</g>
<!-- AppService -->
<g id="node7" class="node">
<title>AppService</title>
<ellipse fill="#fdb462" stroke="black" cx="631" cy="-104" rx="56.74" ry="18"/>
<text text-anchor="middle" x="631" y="-99.8" font-family="Times,serif" font-size="14.00">AppService</text>
</g>
<!-- AppService&#45;&gt;AppModule -->
<g id="edge6" class="edge">
<title>AppService&#45;&gt;AppModule</title>
<path fill="none" stroke="black" d="M631,-122.28C631,-143.32 631,-175 631,-175 631,-175 391.69,-175 391.69,-175"/>
<polygon fill="black" stroke="black" points="391.69,-171.5 381.69,-175 391.69,-178.5 391.69,-171.5"/>
</g>
</g>
</svg>
