<?xml version="1.0" encoding="UTF-8" standalone="no"?>
<!DOCTYPE svg PUBLIC "-//W3C//DTD SVG 1.1//EN"
 "http://www.w3.org/Graphics/SVG/1.1/DTD/svg11.dtd">
<!-- Generated by graphviz version 2.47.0 (20210316.0004)
 -->
<!-- Title: dependencies Pages: 1 -->
<svg width="1175pt" height="211pt"
 viewBox="0.00 0.00 1175.00 211.00" xmlns="http://www.w3.org/2000/svg" xmlns:xlink="http://www.w3.org/1999/xlink">
<g id="graph0" class="graph" transform="scale(1 1) rotate(0) translate(4 207)">
<title>dependencies</title>
<polygon fill="white" stroke="transparent" points="-4,4 -4,-207 1171,-207 1171,4 -4,4"/>
<text text-anchor="start" x="562.51" y="-42.4" font-family="Times-12" font-weight="bold" font-size="14.00">Legend</text>
<polygon fill="#ffffb3" stroke="transparent" points="349.5,-10 349.5,-30 369.5,-30 369.5,-10 349.5,-10"/>
<text text-anchor="start" x="373.13" y="-15.4" font-family="Times-12" font-size="14.00"> &#160;Declarations</text>
<polygon fill="#8dd3c7" stroke="transparent" points="462.5,-10 462.5,-30 482.5,-30 482.5,-10 462.5,-10"/>
<text text-anchor="start" x="486.23" y="-15.4" font-family="Times-12" font-size="14.00"> &#160;Module</text>
<polygon fill="#80b1d3" stroke="transparent" points="548.5,-10 548.5,-30 568.5,-30 568.5,-10 548.5,-10"/>
<text text-anchor="start" x="572.28" y="-15.4" font-family="Times-12" font-size="14.00"> &#160;Bootstrap</text>
<polygon fill="#fdb462" stroke="transparent" points="645.5,-10 645.5,-30 665.5,-30 665.5,-10 645.5,-10"/>
<text text-anchor="start" x="669.17" y="-15.4" font-family="Times-12" font-size="14.00"> &#160;Providers</text>
<polygon fill="#fb8072" stroke="transparent" points="741.5,-10 741.5,-30 761.5,-30 761.5,-10 741.5,-10"/>
<text text-anchor="start" x="765.23" y="-15.4" font-family="Times-12" font-size="14.00"> &#160;Exports</text>
<g id="clust1" class="cluster">
<title>cluster_AppModule</title>
<polygon fill="none" stroke="black" stroke-dasharray="1,5" points="8,-70 8,-195 1159,-195 1159,-70 8,-70"/>
</g>
<g id="clust3" class="cluster">
<title>cluster_AppModule_imports</title>
<polygon fill="none" stroke="black" points="154,-78 154,-130 1151,-130 1151,-78 154,-78"/>
</g>
<g id="clust6" class="cluster">
<title>cluster_AppModule_providers</title>
<polygon fill="none" stroke="black" points="16,-78 16,-130 146,-130 146,-78 16,-78"/>
</g>
<!-- AdminModule -->
<g id="node1" class="node">
<title>AdminModule</title>
<polygon fill="#8dd3c7" stroke="black" points="1143.44,-122 1140.44,-126 1119.44,-126 1116.44,-122 1044.56,-122 1044.56,-86 1143.44,-86 1143.44,-122"/>
<text text-anchor="middle" x="1094" y="-99.8" font-family="Times,serif" font-size="14.00">AdminModule</text>
</g>
<!-- AppModule -->
<g id="node10" class="node">
<title>AppModule</title>
<polygon fill="#8dd3c7" stroke="black" points="657.66,-187 654.66,-191 633.66,-191 630.66,-187 574.34,-187 574.34,-151 657.66,-151 657.66,-187"/>
<text text-anchor="middle" x="616" y="-164.8" font-family="Times,serif" font-size="14.00">AppModule</text>
</g>
<!-- AdminModule&#45;&gt;AppModule -->
<g id="edge1" class="edge">
<title>AdminModule&#45;&gt;AppModule</title>
<path fill="none" stroke="black" d="M1094,-122.01C1094,-144.49 1094,-180 1094,-180 1094,-180 668,-180 668,-180"/>
<polygon fill="black" stroke="black" points="668,-176.5 658,-180 668,-183.5 668,-176.5"/>
</g>
<!-- AuthModule -->
<g id="node2" class="node">
<title>AuthModule</title>
<polygon fill="#8dd3c7" stroke="black" points="1026.55,-122 1023.55,-126 1002.55,-126 999.55,-122 939.45,-122 939.45,-86 1026.55,-86 1026.55,-122"/>
<text text-anchor="middle" x="983" y="-99.8" font-family="Times,serif" font-size="14.00">AuthModule</text>
</g>
<!-- AuthModule&#45;&gt;AppModule -->
<g id="edge2" class="edge">
<title>AuthModule&#45;&gt;AppModule</title>
<path fill="none" stroke="black" d="M983,-122.13C983,-142.57 983,-173 983,-173 983,-173 667.74,-173 667.74,-173"/>
<polygon fill="black" stroke="black" points="667.74,-169.5 657.74,-173 667.74,-176.5 667.74,-169.5"/>
</g>
<!-- PgModule -->
<g id="node3" class="node">
<title>PgModule</title>
<polygon fill="#8dd3c7" stroke="black" points="921.33,-122 918.33,-126 897.33,-126 894.33,-122 846.67,-122 846.67,-86 921.33,-86 921.33,-122"/>
<text text-anchor="middle" x="884" y="-99.8" font-family="Times,serif" font-size="14.00">PgModule</text>
</g>
<!-- PgModule&#45;&gt;AppModule -->
<g id="edge3" class="edge">
<title>PgModule&#45;&gt;AppModule</title>
<path fill="none" stroke="black" d="M884,-122.27C884,-140.56 884,-166 884,-166 884,-166 667.88,-166 667.88,-166"/>
<polygon fill="black" stroke="black" points="667.88,-162.5 657.88,-166 667.87,-169.5 667.88,-162.5"/>
</g>
<!-- RedisModule -->
<g id="node4" class="node">
<title>RedisModule</title>
<polygon fill="#8dd3c7" stroke="black" points="828.94,-122 825.94,-126 804.94,-126 801.94,-122 737.06,-122 737.06,-86 828.94,-86 828.94,-122"/>
<text text-anchor="middle" x="783" y="-99.8" font-family="Times,serif" font-size="14.00">RedisModule</text>
</g>
<!-- RedisModule&#45;&gt;AppModule -->
<g id="edge4" class="edge">
<title>RedisModule&#45;&gt;AppModule</title>
<path fill="none" stroke="black" d="M783,-122.01C783,-138.05 783,-159 783,-159 783,-159 667.71,-159 667.71,-159"/>
<polygon fill="black" stroke="black" points="667.71,-155.5 657.71,-159 667.71,-162.5 667.71,-155.5"/>
</g>
<!-- RolesModule -->
<g id="node5" class="node">
<title>RolesModule</title>
<polygon fill="#8dd3c7" stroke="black" points="719.94,-122 716.94,-126 695.94,-126 692.94,-122 628.06,-122 628.06,-86 719.94,-86 719.94,-122"/>
<text text-anchor="middle" x="674" y="-99.8" font-family="Times,serif" font-size="14.00">RolesModule</text>
</g>
<!-- RolesModule&#45;&gt;AppModule -->
<g id="edge5" class="edge">
<title>RolesModule&#45;&gt;AppModule</title>
<path fill="none" stroke="black" d="M643.06,-122.11C643.06,-122.11 643.06,-140.99 643.06,-140.99"/>
<polygon fill="black" stroke="black" points="639.56,-140.99 643.06,-150.99 646.56,-140.99 639.56,-140.99"/>
</g>
<!-- SessionModule -->
<g id="node6" class="node">
<title>SessionModule</title>
<polygon fill="#8dd3c7" stroke="black" points="610.33,-122 607.33,-126 586.33,-126 583.33,-122 507.67,-122 507.67,-86 610.33,-86 610.33,-122"/>
<text text-anchor="middle" x="559" y="-99.8" font-family="Times,serif" font-size="14.00">SessionModule</text>
</g>
<!-- SessionModule&#45;&gt;AppModule -->
<g id="edge6" class="edge">
<title>SessionModule&#45;&gt;AppModule</title>
<path fill="none" stroke="black" d="M592.17,-122.11C592.17,-122.11 592.17,-140.99 592.17,-140.99"/>
<polygon fill="black" stroke="black" points="588.67,-140.99 592.17,-150.99 595.67,-140.99 588.67,-140.99"/>
</g>
<!-- TablesModule -->
<g id="node7" class="node">
<title>TablesModule</title>
<polygon fill="#8dd3c7" stroke="black" points="489.37,-122 486.37,-126 465.37,-126 462.37,-122 392.63,-122 392.63,-86 489.37,-86 489.37,-122"/>
<text text-anchor="middle" x="441" y="-99.8" font-family="Times,serif" font-size="14.00">TablesModule</text>
</g>
<!-- TablesModule&#45;&gt;AppModule -->
<g id="edge7" class="edge">
<title>TablesModule&#45;&gt;AppModule</title>
<path fill="none" stroke="black" d="M441,-122.01C441,-138.05 441,-159 441,-159 441,-159 564.08,-159 564.08,-159"/>
<polygon fill="black" stroke="black" points="564.08,-162.5 574.08,-159 564.08,-155.5 564.08,-162.5"/>
</g>
<!-- TgAuthModule -->
<g id="node8" class="node">
<title>TgAuthModule</title>
<polygon fill="#8dd3c7" stroke="black" points="374.6,-122 371.6,-126 350.6,-126 347.6,-122 271.4,-122 271.4,-86 374.6,-86 374.6,-122"/>
<text text-anchor="middle" x="323" y="-99.8" font-family="Times,serif" font-size="14.00">TgAuthModule</text>
</g>
<!-- TgAuthModule&#45;&gt;AppModule -->
<g id="edge8" class="edge">
<title>TgAuthModule&#45;&gt;AppModule</title>
<path fill="none" stroke="black" d="M323,-122.27C323,-140.56 323,-166 323,-166 323,-166 564.33,-166 564.33,-166"/>
<polygon fill="black" stroke="black" points="564.33,-169.5 574.33,-166 564.33,-162.5 564.33,-169.5"/>
</g>
<!-- UsersModule -->
<g id="node9" class="node">
<title>UsersModule</title>
<polygon fill="#8dd3c7" stroke="black" points="253.92,-122 250.92,-126 229.92,-126 226.92,-122 162.08,-122 162.08,-86 253.92,-86 253.92,-122"/>
<text text-anchor="middle" x="208" y="-99.8" font-family="Times,serif" font-size="14.00">UsersModule</text>
</g>
<!-- UsersModule&#45;&gt;AppModule -->
<g id="edge9" class="edge">
<title>UsersModule&#45;&gt;AppModule</title>
<path fill="none" stroke="black" d="M208,-122.13C208,-142.57 208,-173 208,-173 208,-173 564.25,-173 564.25,-173"/>
<polygon fill="black" stroke="black" points="564.25,-176.5 574.25,-173 564.25,-169.5 564.25,-176.5"/>
</g>
<!-- AppService -->
<g id="node11" class="node">
<title>AppService</title>
<ellipse fill="#fdb462" stroke="black" cx="81" cy="-104" rx="56.74" ry="18"/>
<text text-anchor="middle" x="81" y="-99.8" font-family="Times,serif" font-size="14.00">AppService</text>
</g>
<!-- AppService&#45;&gt;AppModule -->
<g id="edge10" class="edge">
<title>AppService&#45;&gt;AppModule</title>
<path fill="none" stroke="black" d="M81,-122.01C81,-144.49 81,-180 81,-180 81,-180 564.02,-180 564.02,-180"/>
<polygon fill="black" stroke="black" points="564.02,-183.5 574.02,-180 564.02,-176.5 564.02,-183.5"/>
</g>
</g>
</svg>
