<?xml version="1.0" encoding="UTF-8" standalone="no"?>
<!DOCTYPE svg PUBLIC "-//W3C//DTD SVG 1.1//EN"
 "http://www.w3.org/Graphics/SVG/1.1/DTD/svg11.dtd">
<!-- Generated by graphviz version 2.47.0 (20210316.0004)
 -->
<!-- Title: dependencies Pages: 1 -->
<svg width="504pt" height="287pt"
 viewBox="0.00 0.00 504.00 287.00" xmlns="http://www.w3.org/2000/svg" xmlns:xlink="http://www.w3.org/1999/xlink">
<g id="graph0" class="graph" transform="scale(1 1) rotate(0) translate(4 283)">
<title>dependencies</title>
<polygon fill="white" stroke="transparent" points="-4,4 -4,-283 500,-283 500,4 -4,4"/>
<text text-anchor="start" x="227.01" y="-42.4" font-family="Times-12" font-weight="bold" font-size="14.00">Legend</text>
<polygon fill="#ffffb3" stroke="transparent" points="14,-10 14,-30 34,-30 34,-10 14,-10"/>
<text text-anchor="start" x="37.63" y="-15.4" font-family="Times-12" font-size="14.00"> &#160;Declarations</text>
<polygon fill="#8dd3c7" stroke="transparent" points="127,-10 127,-30 147,-30 147,-10 127,-10"/>
<text text-anchor="start" x="150.73" y="-15.4" font-family="Times-12" font-size="14.00"> &#160;Module</text>
<polygon fill="#80b1d3" stroke="transparent" points="213,-10 213,-30 233,-30 233,-10 213,-10"/>
<text text-anchor="start" x="236.78" y="-15.4" font-family="Times-12" font-size="14.00"> &#160;Bootstrap</text>
<polygon fill="#fdb462" stroke="transparent" points="310,-10 310,-30 330,-30 330,-10 310,-10"/>
<text text-anchor="start" x="333.67" y="-15.4" font-family="Times-12" font-size="14.00"> &#160;Providers</text>
<polygon fill="#fb8072" stroke="transparent" points="406,-10 406,-30 426,-30 426,-10 406,-10"/>
<text text-anchor="start" x="429.73" y="-15.4" font-family="Times-12" font-size="14.00"> &#160;Exports</text>
<g id="clust1" class="cluster">
<title>cluster_AppModule</title>
<polygon fill="none" stroke="black" stroke-dasharray="1,5" points="36.5,-146 36.5,-271 414.5,-271 414.5,-146 36.5,-146"/>
</g>
<g id="clust3" class="cluster">
<title>cluster_AppModule_imports</title>
<polygon fill="none" stroke="black" points="182.5,-154 182.5,-206 406.5,-206 406.5,-154 182.5,-154"/>
</g>
<g id="clust6" class="cluster">
<title>cluster_AppModule_providers</title>
<polygon fill="none" stroke="black" points="44.5,-154 44.5,-206 174.5,-206 174.5,-154 44.5,-154"/>
</g>
<g id="clust7" class="cluster">
<title>cluster_AuthModule</title>
<polygon fill="none" stroke="black" stroke-dasharray="1,5" points="131.5,-70 131.5,-138 281.5,-138 281.5,-70 131.5,-70"/>
</g>
<g id="clust12" class="cluster">
<title>cluster_AuthModule_providers</title>
<polygon fill="none" stroke="black" points="139.5,-78 139.5,-130 273.5,-130 273.5,-78 139.5,-78"/>
</g>
<g id="clust13" class="cluster">
<title>cluster_SessionModule</title>
<polygon fill="none" stroke="black" stroke-dasharray="1,5" points="289.5,-70 289.5,-138 459.5,-138 459.5,-70 289.5,-70"/>
</g>
<g id="clust18" class="cluster">
<title>cluster_SessionModule_providers</title>
<polygon fill="none" stroke="black" points="297.5,-78 297.5,-130 451.5,-130 451.5,-78 297.5,-78"/>
</g>
<!-- AuthModule -->
<g id="node1" class="node">
<title>AuthModule</title>
<polygon fill="#8dd3c7" stroke="black" points="278.05,-198 275.05,-202 254.05,-202 251.05,-198 190.95,-198 190.95,-162 278.05,-162 278.05,-198"/>
<text text-anchor="middle" x="234.5" y="-175.8" font-family="Times,serif" font-size="14.00">AuthModule</text>
</g>
<!-- AppModule -->
<g id="node3" class="node">
<title>AppModule</title>
<polygon fill="#8dd3c7" stroke="black" points="276.16,-263 273.16,-267 252.16,-267 249.16,-263 192.84,-263 192.84,-227 276.16,-227 276.16,-263"/>
<text text-anchor="middle" x="234.5" y="-240.8" font-family="Times,serif" font-size="14.00">AppModule</text>
</g>
<!-- AuthModule&#45;&gt;AppModule -->
<g id="edge1" class="edge">
<title>AuthModule&#45;&gt;AppModule</title>
<path fill="none" stroke="black" d="M234.5,-198.11C234.5,-198.11 234.5,-216.99 234.5,-216.99"/>
<polygon fill="black" stroke="black" points="231,-216.99 234.5,-226.99 238,-216.99 231,-216.99"/>
</g>
<!-- SessionModule -->
<g id="node2" class="node">
<title>SessionModule</title>
<polygon fill="#8dd3c7" stroke="black" points="398.83,-198 395.83,-202 374.83,-202 371.83,-198 296.17,-198 296.17,-162 398.83,-162 398.83,-198"/>
<text text-anchor="middle" x="347.5" y="-175.8" font-family="Times,serif" font-size="14.00">SessionModule</text>
</g>
<!-- SessionModule&#45;&gt;AppModule -->
<g id="edge2" class="edge">
<title>SessionModule&#45;&gt;AppModule</title>
<path fill="none" stroke="black" d="M347.5,-198.11C347.5,-217.34 347.5,-245 347.5,-245 347.5,-245 286.26,-245 286.26,-245"/>
<polygon fill="black" stroke="black" points="286.26,-241.5 276.26,-245 286.26,-248.5 286.26,-241.5"/>
</g>
<!-- AppService -->
<g id="node4" class="node">
<title>AppService</title>
<ellipse fill="#fdb462" stroke="black" cx="109.5" cy="-180" rx="56.74" ry="18"/>
<text text-anchor="middle" x="109.5" y="-175.8" font-family="Times,serif" font-size="14.00">AppService</text>
</g>
<!-- AppService&#45;&gt;AppModule -->
<g id="edge3" class="edge">
<title>AppService&#45;&gt;AppModule</title>
<path fill="none" stroke="black" d="M109.5,-198.11C109.5,-217.34 109.5,-245 109.5,-245 109.5,-245 182.53,-245 182.53,-245"/>
<polygon fill="black" stroke="black" points="182.53,-248.5 192.53,-245 182.53,-241.5 182.53,-248.5"/>
</g>
<!-- AuthService -->
<g id="node5" class="node">
<title>AuthService</title>
<ellipse fill="#fdb462" stroke="black" cx="206.5" cy="-104" rx="59.11" ry="18"/>
<text text-anchor="middle" x="206.5" y="-99.8" font-family="Times,serif" font-size="14.00">AuthService</text>
</g>
<!-- AuthService&#45;&gt;AuthModule -->
<g id="edge4" class="edge">
<title>AuthService&#45;&gt;AuthModule</title>
<path fill="none" stroke="black" d="M228.27,-120.87C228.27,-120.87 228.27,-151.85 228.27,-151.85"/>
<polygon fill="black" stroke="black" points="224.77,-151.85 228.27,-161.85 231.77,-151.85 224.77,-151.85"/>
</g>
<!-- SessionService -->
<g id="node6" class="node">
<title>SessionService</title>
<ellipse fill="#fdb462" stroke="black" cx="374.5" cy="-104" rx="69.5" ry="18"/>
<text text-anchor="middle" x="374.5" y="-99.8" font-family="Times,serif" font-size="14.00">SessionService</text>
</g>
<!-- SessionService&#45;&gt;SessionModule -->
<g id="edge5" class="edge">
<title>SessionService&#45;&gt;SessionModule</title>
<path fill="none" stroke="black" d="M351.83,-121.25C351.83,-121.25 351.83,-151.76 351.83,-151.76"/>
<polygon fill="black" stroke="black" points="348.33,-151.76 351.83,-161.76 355.33,-151.76 348.33,-151.76"/>
</g>
</g>
</svg>
