<?xml version="1.0" encoding="UTF-8" standalone="no"?>
<!DOCTYPE svg PUBLIC "-//W3C//DTD SVG 1.1//EN"
 "http://www.w3.org/Graphics/SVG/1.1/DTD/svg11.dtd">
<!-- Generated by graphviz version 2.47.0 (20210316.0004)
 -->
<!-- Title: dependencies Pages: 1 -->
<svg width="504pt" height="211pt"
 viewBox="0.00 0.00 504.00 211.00" xmlns="http://www.w3.org/2000/svg" xmlns:xlink="http://www.w3.org/1999/xlink">
<g id="graph0" class="graph" transform="scale(1 1) rotate(0) translate(4 207)">
<title>dependencies</title>
<polygon fill="white" stroke="transparent" points="-4,4 -4,-207 500,-207 500,4 -4,4"/>
<text text-anchor="start" x="227.01" y="-42.4" font-family="Times-12" font-weight="bold" font-size="14.00">Legend</text>
<polygon fill="#ffffb3" stroke="transparent" points="14,-10 14,-30 34,-30 34,-10 14,-10"/>
<text text-anchor="start" x="37.63" y="-15.4" font-family="Times-12" font-size="14.00"> &#160;Declarations</text>
<polygon fill="#8dd3c7" stroke="transparent" points="127,-10 127,-30 147,-30 147,-10 127,-10"/>
<text text-anchor="start" x="150.73" y="-15.4" font-family="Times-12" font-size="14.00"> &#160;Module</text>
<polygon fill="#80b1d3" stroke="transparent" points="213,-10 213,-30 233,-30 233,-10 213,-10"/>
<text text-anchor="start" x="236.78" y="-15.4" font-family="Times-12" font-size="14.00"> &#160;Bootstrap</text>
<polygon fill="#fdb462" stroke="transparent" points="310,-10 310,-30 330,-30 330,-10 310,-10"/>
<text text-anchor="start" x="333.67" y="-15.4" font-family="Times-12" font-size="14.00"> &#160;Providers</text>
<polygon fill="#fb8072" stroke="transparent" points="406,-10 406,-30 426,-30 426,-10 406,-10"/>
<text text-anchor="start" x="429.73" y="-15.4" font-family="Times-12" font-size="14.00"> &#160;Exports</text>
<g id="clust1" class="cluster">
<title>cluster_TgAuthModule</title>
<polygon fill="none" stroke="black" stroke-dasharray="1,5" points="104,-70 104,-195 392,-195 392,-70 104,-70"/>
</g>
<g id="clust6" class="cluster">
<title>cluster_TgAuthModule_providers</title>
<polygon fill="none" stroke="black" points="228,-78 228,-130 384,-130 384,-78 228,-78"/>
</g>
<g id="clust3" class="cluster">
<title>cluster_TgAuthModule_imports</title>
<polygon fill="none" stroke="black" points="112,-78 112,-130 220,-130 220,-78 112,-78"/>
</g>
<!-- RedisModule -->
<g id="node1" class="node">
<title>RedisModule</title>
<polygon fill="#8dd3c7" stroke="black" points="211.94,-122 208.94,-126 187.94,-126 184.94,-122 120.06,-122 120.06,-86 211.94,-86 211.94,-122"/>
<text text-anchor="middle" x="166" y="-99.8" font-family="Times,serif" font-size="14.00">RedisModule</text>
</g>
<!-- TgAuthModule -->
<g id="node2" class="node">
<title>TgAuthModule</title>
<polygon fill="#8dd3c7" stroke="black" points="287.6,-187 284.6,-191 263.6,-191 260.6,-187 184.4,-187 184.4,-151 287.6,-151 287.6,-187"/>
<text text-anchor="middle" x="236" y="-164.8" font-family="Times,serif" font-size="14.00">TgAuthModule</text>
</g>
<!-- RedisModule&#45;&gt;TgAuthModule -->
<g id="edge1" class="edge">
<title>RedisModule&#45;&gt;TgAuthModule</title>
<path fill="none" stroke="black" d="M198.08,-122.11C198.08,-122.11 198.08,-140.99 198.08,-140.99"/>
<polygon fill="black" stroke="black" points="194.58,-140.99 198.08,-150.99 201.58,-140.99 194.58,-140.99"/>
</g>
<!-- TgAuthService -->
<g id="node3" class="node">
<title>TgAuthService</title>
<ellipse fill="#fdb462" stroke="black" cx="306" cy="-104" rx="70.06" ry="18"/>
<text text-anchor="middle" x="306" y="-99.8" font-family="Times,serif" font-size="14.00">TgAuthService</text>
</g>
<!-- TgAuthService&#45;&gt;TgAuthModule -->
<g id="edge2" class="edge">
<title>TgAuthService&#45;&gt;TgAuthModule</title>
<path fill="none" stroke="black" d="M261.76,-118.1C261.76,-118.1 261.76,-140.72 261.76,-140.72"/>
<polygon fill="black" stroke="black" points="258.26,-140.72 261.76,-150.72 265.26,-140.72 258.26,-140.72"/>
</g>
</g>
</svg>
